<?xml version="1.0" encoding="utf-8"?>
<!-- Generator: Adobe Illustrator 16.0.0, SVG Export Plug-In . SVG Version: 6.00 Build 0)  -->
<!DOCTYPE svg PUBLIC "-//W3C//DTD SVG 1.1//EN" "http://www.w3.org/Graphics/SVG/1.1/DTD/svg11.dtd">
<svg version="1.1" id="Layer_1" xmlns="http://www.w3.org/2000/svg" xmlns:xlink="http://www.w3.org/1999/xlink" x="0px" y="0px"
	 width="612px" height="634.5px" viewBox="0 0 612 634.5" enable-background="new 0 0 612 634.5" xml:space="preserve">
<g>
	<path fill="#D1E7E8" d="M306.086,32.766c-158.655,0-287.236,128.361-287.236,286.698c0,158.398,128.569,286.771,287.236,286.771
		c158.557,0,287.052-128.361,287.052-286.771C593.138,161.139,464.643,32.766,306.086,32.766z M470.481,394.959h-328.95
		c-38.495,0-69.695-33.782-69.695-75.447c0-41.689,31.2-75.472,69.695-75.472h328.95c38.494,0,69.682,33.782,69.682,75.472
		C540.163,361.177,508.964,394.959,470.481,394.959z M470.476,394.959h-328.95c-38.495,0-69.695-33.781-69.695-75.447
		c0-41.689,31.2-75.471,69.695-75.471h328.95c38.494,0,69.682,33.781,69.682,75.471
		C540.157,361.178,508.958,394.959,470.476,394.959z"/>
</g>
<path fill="#418486" d="M424.371,379.745H184.625c-28.056,0-50.794-24.621-50.794-54.987c0-30.384,22.739-55.005,50.794-55.005
	h239.746c28.056,0,50.785,24.621,50.785,55.005C475.156,355.124,452.417,379.745,424.371,379.745z"/>
<path fill="#418486" d="M251.829,446.148l1.17-239.742c0.137-28.055,24.868-50.674,55.234-50.526
	c30.384,0.148,54.893,23.006,54.757,51.063l-1.17,239.743c-0.137,28.055-24.867,50.665-55.252,50.516
	C276.202,497.054,251.692,474.194,251.829,446.148z"/>
</svg>
