<?xml version="1.0" encoding="utf-8"?>
<!-- Generator: Adobe Illustrator 16.0.0, SVG Export Plug-In . SVG Version: 6.00 Build 0)  -->
<!DOCTYPE svg PUBLIC "-//W3C//DTD SVG 1.1//EN" "http://www.w3.org/Graphics/SVG/1.1/DTD/svg11.dtd">
<svg version="1.1" id="Layer_1" xmlns="http://www.w3.org/2000/svg" xmlns:xlink="http://www.w3.org/1999/xlink" x="0px" y="0px"
	 width="75.75px" height="78.25px" viewBox="0 12 75.75 78.25" enable-background="new 0 12 75.75 78.25" xml:space="preserve">
<g>
	<path d="M36.984,13.519C16.591,13.519,0,30.108,0,50.5s16.591,36.981,36.984,36.981c20.394,0,36.983-16.589,36.983-36.981
		S57.378,13.519,36.984,13.519z M36.984,83.215c-18.04,0-32.717-14.675-32.717-32.715c0-18.039,14.677-32.714,32.717-32.714
		c18.04,0,32.716,14.676,32.716,32.714C69.7,68.54,55.023,83.215,36.984,83.215z"/>
</g>
<g>
	<path d="M43.971,40.495l-6.987,6.988l-6.988-6.988c-0.833-0.833-2.184-0.834-3.017,0c-0.833,0.833-0.833,2.184,0,3.017l6.988,6.988
		l-6.989,6.988c-0.833,0.833-0.833,2.184,0,3.017c0.834,0.834,2.185,0.833,3.018,0l6.988-6.988l6.987,6.988
		c0.833,0.833,2.185,0.833,3.018,0c0.834-0.834,0.833-2.185,0-3.018L40.001,50.5l6.988-6.988c0.833-0.832,0.834-2.184,0-3.017
		C46.156,39.662,44.804,39.662,43.971,40.495z"/>
</g>
</svg>
